<?xml version="1.0" encoding="UTF-8"?>
<svg width="30px" height="30px" viewBox="0 0 30 30" version="1.1" xmlns="http://www.w3.org/2000/svg" xmlns:xlink="http://www.w3.org/1999/xlink">
    <!-- Generator: Sketch 3.8.3 (29802) - http://www.bohemiancoding.com/sketch -->
    <title>inputBlue</title>
    <desc>Created with Sketch.</desc>
    <defs></defs>
    <g id="Page-1" stroke="none" stroke-width="1" fill="none" fill-rule="evenodd">
        <g id="inputBlue">
            <g id="layer1-copy-3">
                <g id="Page-1">
                    <g id="layer1-copy-3">
                        <path d="M0.122537342,15.1546509 C0.122537342,6.97894093 6.74577469,0.346650331 14.9103955,0.346650331 C23.0750163,0.346650331 29.6982537,6.97894093 29.6982537,15.1546509 C29.6982537,23.3356363 23.0750163,29.9625293 14.9103955,29.9625293 C6.74577469,29.9625293 0.122537342,23.3356363 0.122537342,15.1546509" id="path9183" fill="#545454"></path>
                        <path d="M7.27710311,15.1546509 C7.27710311,10.9351221 10.6913086,7.51095021 14.9103955,7.51095021 C19.1242143,7.51095021 22.5436879,10.9351221 22.5436879,15.1546509 C22.5436879,19.3794935 19.1242143,22.8035124 14.9103955,22.8035124 C10.6913086,22.8035124 7.27710311,19.3794935 7.27710311,15.1546509" id="path9185" fill="#000000"></path>
                        <path d="M4.02308558,15.153401 C4.02308558,9.13199141 8.89545038,4.25064074 14.9103955,4.25064074 C20.9202694,4.25064074 25.7977054,9.13474338 25.7977054,15.153401 C25.7977054,21.1787291 20.9214864,26.0638219 14.9103955,26.0638219 C8.89423403,26.0638219 4.02308558,21.1814823 4.02308558,15.153401 L3.13638607,15.153401 C3.13638607,21.670738 8.40406733,26.9505214 14.9103955,26.9505214 C21.4115583,26.9505214 26.684405,21.6680792 26.684405,15.153401 C26.684405,8.64530368 21.4102513,3.36394123 14.9103955,3.36394123 C8.40537365,3.36394123 3.13638607,8.64264617 3.13638607,15.153401 L4.02308558,15.153401 L4.02308558,15.153401 L4.02308558,15.153401 Z" id="path18865" fill="#4990E2"></path>
                    </g>
                </g>
            </g>
        </g>
    </g>
</svg>